<svg xmlns="http://www.w3.org/2000/svg" version="1.1" xmlns:xlink="http://www.w3.org/1999/xlink" xmlns:svgjs="http://svgjs.dev/svgjs" width="1000" height="560" viewBox="0 0 1000 560"><g transform="matrix(1,0,0,1,-0.6060606060606801,0.025314021628446426)"><svg viewBox="0 0 396 222" data-background-color="#0080ff" preserveAspectRatio="xMidYMid meet" height="560" width="1000" xmlns="http://www.w3.org/2000/svg" xmlns:xlink="http://www.w3.org/1999/xlink"><g id="tight-bounds" transform="matrix(1,0,0,1,0.24000000000003752,-0.01003311164271281)"><svg viewBox="0 0 395.5199999999999 222.02006831307403" height="222.02006831307403" width="395.5199999999999"><g><svg viewBox="0 0 397.49759999999986 223.13016865463936" height="222.02006831307403" width="395.5199999999999"><g><rect width="397.49759999999986" height="6.834182363515129" x="0" y="122.62253177616228" fill="#ffffff" opacity="1" stroke-width="0" stroke="transparent" fill-opacity="1" class="rect-o-0" data-fill-palette-color="secondary" rx="1%" id="o-0" data-palette-color="#ffffff"></rect></g><g transform="matrix(1,0,0,1,0.9887999999999693,147.3472438870992)"><svg viewBox="0 0 395.5199999999999 75.78292476754014" height="75.78292476754014" width="395.5199999999999"><g id="textblocktransform"><svg viewBox="0 0 395.5199999999999 75.78292476754014" height="75.78292476754014" width="395.5199999999999" id="textblock"><g><svg viewBox="0 0 395.5199999999999 75.78292476754014" height="75.78292476754014" width="395.5199999999999"><g transform="matrix(1,0,0,1,0,0)"><svg width="395.5199999999999" viewBox="2.200000047683716 -33.5 177.44000244140625 34" height="75.78292476754014" data-palette-color="#ffffff"><path d="M19.1 0L2.2 0 2.2-0.8 6.45-2.85 6.45-30.15 2.2-32.2 2.2-33 28.95-33 28.95-24.35 28.15-24.35 24.75-30.25 14-30.25 14-18.25 21.2-18.25 24-22.55 24.8-22.55 24.8-11.6 24-11.6 21.2-15.8 14-15.8 14-2.85 19.1-0.8 19.1 0ZM61.4 0L33.75 0 33.75-0.8 38-2.85 38-30.15 33.75-32.2 33.75-33 50.3-33 50.3-32.2 45.55-30.15 45.55-2.75 56.55-2.75 60.6-12.2 61.4-12.2 61.4 0ZM83.7 0.5L83.7 0.5Q80 0.5 76.84-0.78 73.7-2.05 71.37-4.33 69.05-6.6 67.75-9.7 66.45-12.8 66.45-16.5L66.45-16.5Q66.45-20.2 67.75-23.3 69.05-26.4 71.37-28.68 73.7-30.95 76.84-32.23 80-33.5 83.7-33.5L83.7-33.5Q87.45-33.5 90.59-32.23 93.75-30.95 96.07-28.68 98.4-26.4 99.7-23.3 101-20.2 101-16.5L101-16.5Q101-12.8 99.7-9.7 98.4-6.6 96.07-4.33 93.75-2.05 90.59-0.78 87.45 0.5 83.7 0.5ZM84.5-2.1L84.5-2.1Q87-2.1 88.92-3.7 90.84-5.3 91.92-8.2 93-11.1 93-15L93-15Q93-19.8 91.67-23.4 90.34-27 88.09-28.98 85.84-30.95 83.05-30.95L83.05-30.95Q80.55-30.95 78.59-29.38 76.65-27.8 75.52-24.9 74.4-22 74.4-18.1L74.4-18.1Q74.4-13.3 75.75-9.7 77.09-6.1 79.4-4.1 81.7-2.1 84.5-2.1ZM123.14 0.5L123.14 0.5Q119.44 0.5 116.29-0.78 113.14-2.05 110.82-4.33 108.49-6.6 107.19-9.7 105.89-12.8 105.89-16.5L105.89-16.5Q105.89-20.2 107.19-23.3 108.49-26.4 110.82-28.68 113.14-30.95 116.29-32.23 119.44-33.5 123.14-33.5L123.14-33.5Q126.89-33.5 130.04-32.23 133.19-30.95 135.52-28.68 137.84-26.4 139.14-23.3 140.44-20.2 140.44-16.5L140.44-16.5Q140.44-12.8 139.14-9.7 137.84-6.6 135.52-4.33 133.19-2.05 130.04-0.78 126.89 0.5 123.14 0.5ZM123.94-2.1L123.94-2.1Q126.44-2.1 128.37-3.7 130.29-5.3 131.37-8.2 132.44-11.1 132.44-15L132.44-15Q132.44-19.8 131.12-23.4 129.79-27 127.54-28.98 125.29-30.95 122.49-30.95L122.49-30.95Q119.99-30.95 118.04-29.38 116.09-27.8 114.97-24.9 113.84-22 113.84-18.1L113.84-18.1Q113.84-13.3 115.19-9.7 116.54-6.1 118.84-4.1 121.14-2.1 123.94-2.1ZM160.64 0L145.09 0 145.09-0.8 149.34-2.85 149.34-30.15 145.09-32.2 145.09-33 162.19-33Q167.44-33 170.47-30.83 173.49-28.65 173.49-24.85L173.49-24.85Q173.49-22.1 171.64-20.13 169.79-18.15 166.79-17L166.79-17 176.04-2.8 179.64-0.8 179.64 0 168.79 0 159.54-15.3 156.89-15.3 156.89-2.9 160.64-0.8 160.64 0ZM158.89-30.25L158.89-30.25 156.89-30.25 156.89-17.75 159.19-17.75Q162.29-17.75 164.09-19.5 165.89-21.25 165.89-24.05L165.89-24.05Q165.89-27 164.12-28.63 162.34-30.25 158.89-30.25Z" opacity="1" transform="matrix(1,0,0,1,0,0)" fill="#ffffff" class="undefined-text-0" data-fill-palette-color="primary" id="text-0"></path></svg></g></svg></g></svg></g></svg></g><g transform="matrix(1,0,0,1,95.9419953448185,0)"><svg viewBox="0 0 205.61360931036288 104.73200202874047" height="104.73200202874047" width="205.61360931036288"><g><svg xmlns="http://www.w3.org/2000/svg" xmlns:xlink="http://www.w3.org/1999/xlink" version="1.1" x="8" y="0" viewBox="5.916999816894531 25.6510009765625 88.16600036621094 48.69799041748047" enable-background="new 0 0 100 100" xml:space="preserve" height="104.73200202874047" width="189.61360931036288" class="icon-icon-0" data-fill-palette-color="accent" id="icon-0"><path fill="#ffffff" d="M93.684 52.544l0.399-0.668L50.258 25.651 5.917 52.048l0.398 0.668 7.235-4.307 6.183 3.571-7.019 4.079c-0.13 0.075-0.175 0.244-0.1 0.373 0.05 0.089 0.143 0.137 0.236 0.137 0.045 0 0.093-0.013 0.137-0.037l7.289-4.237 7.275 4.199-7.109 4.133c-0.13 0.075-0.174 0.242-0.099 0.371 0.05 0.088 0.142 0.137 0.236 0.137 0.045 0 0.092-0.011 0.137-0.038l7.379-4.288 6.756 3.899-7.431 4.32c-0.13 0.075-0.174 0.242-0.099 0.37 0.05 0.089 0.142 0.138 0.236 0.138 0.045 0 0.092-0.011 0.137-0.038l7.701-4.477 7.433 4.292-7.392 4.299c-0.132 0.075-0.176 0.241-0.1 0.373 0.051 0.086 0.142 0.137 0.236 0.137 0.047 0 0.094-0.014 0.137-0.037l7.663-4.455 6.35 3.666-7.725 4.489c-0.13 0.075-0.175 0.241-0.1 0.373 0.051 0.086 0.143 0.137 0.236 0.137 0.048 0 0.095-0.013 0.137-0.037l7.996-4.648 8.148 4.705c0.043 0.023 0.09 0.034 0.135 0.034 0.094 0 0.187-0.048 0.236-0.134 0.076-0.132 0.031-0.301-0.1-0.373l-7.877-4.549 6.625-3.852 7.759 4.482c0.044 0.023 0.091 0.034 0.137 0.034 0.094 0 0.188-0.045 0.236-0.134 0.075-0.132 0.032-0.298-0.1-0.373l-7.49-4.323 7.35-4.272 7.667 4.428c0.043 0.024 0.09 0.035 0.136 0.035 0.094 0 0.187-0.048 0.236-0.134 0.076-0.132 0.03-0.301-0.1-0.373l-7.397-4.271 6.568-3.818 7.613 4.396c0.043 0.024 0.091 0.035 0.137 0.035 0.094 0 0.186-0.048 0.236-0.134 0.075-0.132 0.029-0.301-0.1-0.373l-7.345-4.24 7-4.068 7.521 4.342c0.043 0.026 0.091 0.037 0.137 0.037 0.094 0 0.185-0.048 0.236-0.137 0.075-0.131 0.029-0.298-0.1-0.37l-7.253-4.187 6.234-3.625L93.684 52.544zM28.429 39.552l6.363 3.674-7.348 4.272-6.276-3.623L28.429 39.552zM35.455 35.37l6.447 3.724-6.567 3.817-6.37-3.678L35.455 35.37zM42.906 30.934l6.539 3.774-6.999 4.068-6.454-3.726L42.906 30.934zM64.443 35.047l-6.638 3.859-7.274-4.2 6.769-3.934L64.443 35.047zM71.613 39.337l-6.51 3.784-6.755-3.9 6.63-3.853L71.613 39.337zM50.264 43.921l6.755 3.901-6.567 3.818-6.756-3.901L50.264 43.921zM43.153 47.424l-7.274-4.2 6.567-3.817 7.275 4.2L43.153 47.424zM50.808 43.605l6.999-4.068 6.755 3.899-6.999 4.068L50.808 43.605zM57.262 39.222l-6.999 4.07-7.274-4.201 6.999-4.068L57.262 39.222zM35.335 43.54l7.274 4.201-7.348 4.271-7.274-4.201L35.335 43.54zM43.154 48.055l6.755 3.899-7.348 4.272-6.755-3.899L43.154 48.055zM50.452 52.268l7.434 4.294-7.348 4.27-7.434-4.291L50.452 52.268zM50.996 51.954l6.568-3.818 7.435 4.29-6.568 3.819L50.996 51.954zM58.106 47.82l6.998-4.07 7.435 4.292-6.999 4.069L58.106 47.82zM65.648 43.435l6.498-3.777 7.301 4.369-6.365 3.701L65.648 43.435zM56.764 30.452l-6.777 3.941-6.544-3.778 6.814-4.057L56.764 30.452zM14.087 48.09l6.544-3.895 6.269 3.619-6.623 3.851L14.087 48.09zM20.821 51.978l6.623-3.85 7.274 4.202-6.622 3.849L20.821 51.978zM28.64 56.492l6.623-3.849 6.755 3.899-6.624 3.851L28.64 56.492zM35.938 60.708l6.624-3.852 7.434 4.292-6.623 3.851L35.938 60.708zM50.264 68.979l-6.348-3.665 6.624-3.852 6.349 3.666L50.264 68.979zM57.431 64.813l-6.348-3.665 7.348-4.272 6.35 3.665L57.431 64.813zM65.322 60.225l-6.35-3.666 6.568-3.815 6.35 3.665L65.322 60.225zM72.434 56.092l-6.35-3.666 6.999-4.069 6.35 3.667L72.434 56.092zM79.977 51.707l-6.351-3.666 6.357-3.695 6.235 3.732L79.977 51.707z" data-fill-palette-color="accent"></path></svg></g></svg></g><g><rect width="19.40887534481854" height="6.834182363515129" y="96.89781966522534" x="301.55560465518136" fill="#ffffff" data-fill-palette-color="secondary"></rect><rect width="19.40887534481854" height="6.834182363515129" y="96.89781966522534" x="76.53311999999995" fill="#ffffff" data-fill-palette-color="secondary"></rect></g></svg></g><defs></defs></svg><rect width="395.5199999999999" height="222.02006831307403" fill="none" stroke="none" visibility="hidden"></rect></g></svg></g></svg>